<svg width="85" height="77" viewBox="0 0 85 77" fill="none" xmlns="http://www.w3.org/2000/svg">
<path d="M52.8731 59.368C62.7296 59.0557 72.4336 61.0894 82.1897 60.9356C83.1249 60.8613 84.2738 59.9231 83.9115 58.9167C80.5057 49.2118 74.8865 40.5486 69.0375 32.0731C68.4163 31.1249 66.9213 31.733 67.2835 32.7394C64.455 35.2791 64.6448 42.1715 65.1295 46.142C59.5376 48.4871 55.0845 51.664 51.5857 56.666C50.8831 57.7756 51.6498 59.371 52.8731 59.368ZM68.5561 46.8672C67.8998 43.3432 69.0426 39.9587 69.3797 36.6193C73.3393 43.3441 77.1694 50.0979 79.9219 57.502C72.0071 57.3778 64.2477 56.1307 56.3037 55.877C59.3751 52.6028 63.2261 50.3772 67.5818 48.582C68.517 48.5077 68.7307 47.6438 68.5561 46.8672Z" fill="#6366F1"/>
<path d="M29.0563 48.4034C37.7287 46.4535 46.2719 44.5328 54.9443 42.583C56.2387 42.2919 56.5658 40.7226 55.8152 39.8035C50.7619 33.0527 45.5791 26.331 40.7265 19.2631C40.1345 18.4445 39.1281 18.8066 38.8853 19.5413C38.3224 18.852 36.9276 19.3013 37.1605 20.337C37.8908 24.7962 39.0681 29.4269 37.6111 33.8339C36.1251 38.1115 30.7369 41.3626 27.2321 43.9184C26.4133 44.5104 26.617 45.4165 27.1508 45.9764C26.7364 47.1572 27.5031 48.7526 29.0563 48.4034ZM40.549 34.8049C42.3232 30.5985 40.5538 25.1491 39.3055 20.8064C42.8476 27.4888 47.2377 33.709 51.7281 39.7703C45.1267 41.2545 38.5253 42.7387 31.9239 44.2229C35.4579 41.7968 38.8755 38.8529 40.549 34.8049Z" fill="#6366F1"/>
<path d="M7.07674 38.9306C15.3899 37.1973 23.661 35.8819 31.4664 32.4952C32.5731 31.9742 32.6414 30.4633 31.9199 29.6736C26.8987 24.2754 22.2077 18.531 16.8273 13.3495C16.4811 13.0194 16.0637 12.9775 15.6754 13.0648C15.2128 12.2169 13.5592 12.7244 13.9215 13.7311C14.95 16.4914 14.914 19.3551 15.0073 22.1898C15.1298 25.1538 15.0716 24.895 12.9324 26.8717C10.5634 29.0363 7.23322 32.3687 5.77328 35.5524C4.23604 36.5777 5.00572 39.3962 7.07674 38.9306ZM17.8831 27.118C18.3427 26.7427 18.4851 26.1668 18.3687 25.649C17.6575 23.0895 17.5639 20.2547 17.1113 17.6368C20.518 21.9025 24.0832 26.268 27.7196 30.346C22.228 32.5325 16.3451 33.5832 10.4912 34.7632C10.6919 34.4461 11.022 34.1001 11.2227 33.7828C13.0869 31.188 15.2974 28.9232 17.8831 27.118Z" fill="#6366F1"/>
</svg>
