<svg width="100" height="48" viewBox="0 0 100 48" fill="none" xmlns="http://www.w3.org/2000/svg">
<g clip-path="url(#clip0_1_295)">
<path d="M58.9047 20.349C58.2049 20.294 57.4966 20.349 56.7947 20.3109C56.2768 20.2834 56.1203 20.5012 56.133 20.9895C56.1584 21.9388 56.1394 22.8901 56.1394 23.8415C56.1373 24.2284 56.1373 24.6153 56.1373 25.0022C56.1373 27.6258 56.1373 27.6258 58.7672 27.4863C60.9194 27.3721 62.0632 26.1459 62.0843 23.9303C62.1033 21.8056 60.9702 20.5117 58.9047 20.349ZM59.5791 25.5603C58.9579 26.1696 57.8011 25.9979 57.8011 25.9979V21.9536C57.8011 21.9536 58.9744 21.7379 59.5791 22.4885C59.5812 22.4906 59.5833 22.4927 59.5833 22.4948C59.7884 22.7041 59.911 22.9493 59.9786 23.2115C59.9786 23.2115 59.9786 23.2115 59.9786 23.2136C60.2408 23.9409 60.1325 25.0066 59.5791 25.5603Z" fill="#6366F1"/>
<path d="M72.8732 26.5513C72.3088 24.7437 71.7189 22.9467 71.1587 21.137C71.0149 20.6719 70.7866 20.4922 70.2665 20.4922C70.0593 20.4922 69.8373 20.5006 69.6111 20.5049C69.6111 20.5049 69.6238 22.101 69.6301 22.0926C69.8141 22.7966 69.979 23.3886 70.1206 23.9869C70.165 24.175 70.2644 24.4625 70.0065 24.5302C69.8817 24.5619 69.7464 24.5809 69.6111 24.5852C69.4758 24.5809 69.3405 24.5619 69.2158 24.5302C68.9578 24.4625 69.0572 24.175 69.1016 23.9869C69.2433 23.3886 69.4082 22.7966 69.5921 22.0926C69.5984 22.101 69.6111 20.5049 69.6111 20.5049C69.3849 20.5006 69.1629 20.4922 68.9557 20.4922C68.4357 20.4922 68.2073 20.6719 68.0636 21.137C67.5033 22.9467 66.9135 24.7437 66.349 26.5513C65.9938 27.6845 66.0044 27.6866 67.2686 27.6781C68.0192 27.6781 68.1946 27.6189 68.3321 26.8536C68.4779 26.0587 68.7718 26.1729 69.6111 26.1813C70.4504 26.1729 70.7443 26.0587 70.8902 26.8536C71.0276 27.6189 71.2031 27.6781 71.9536 27.6781C73.2178 27.6866 73.2284 27.6845 72.8732 26.5513Z" fill="#6366F1"/>
<path d="M46.4645 25.7647C46.4769 25.6914 46.5505 25.6421 46.6224 25.6616C47.3374 25.8552 47.9926 26.1463 48.6999 26.1364C49.0737 26.1311 49.4486 26.093 49.5297 25.6632C49.6033 25.2736 49.2627 25.1495 48.9695 25.0085C48.4644 24.7656 47.9547 24.525 47.4765 24.2349C46.1355 23.4214 46.1702 21.5667 47.541 20.7809C48.7063 20.1128 49.9069 20.3052 51.1189 20.6648C51.5464 20.7916 51.4359 20.8969 51.3247 21.2794C50.9959 22.2318 51.064 22.2914 50.5342 22.1635C50.0925 22.0567 49.6513 21.9314 49.2025 21.8791C48.9333 21.8479 48.6175 21.9079 48.5515 22.2707C48.494 22.5865 48.7486 22.6912 48.9644 22.8037C49.4317 23.0468 50.0682 23.3487 50.3688 23.5265C51.165 23.9979 51.6824 24.6755 51.5069 25.7083C51.3304 26.7467 50.705 27.2738 49.7209 27.5332C48.7492 27.7894 47.8287 27.6469 46.9327 27.3013C46.0877 26.9749 46.2416 27.0641 46.4645 25.7647Z" fill="#6366F1"/>
<path d="M37.5261 25.7642C37.5388 25.6909 37.6121 25.6416 37.684 25.6611C38.399 25.8547 39.0542 26.1458 39.7616 26.1359C40.1353 26.1306 40.5102 26.0926 40.5914 25.6628C40.6649 25.2731 40.3243 25.149 40.0311 25.008C39.526 24.7651 39.0163 24.5245 38.5381 24.2344C37.1971 23.4209 37.2318 21.5662 38.6026 20.7804C39.7679 20.1123 40.9685 20.3047 42.1805 20.6643C42.608 20.7911 42.4975 20.8964 42.3863 21.2789C42.0575 22.2313 42.1256 22.2909 41.5958 22.163C41.1541 22.0562 40.7129 21.9309 40.2641 21.8787C39.995 21.8474 39.6791 21.9074 39.6131 22.2702C39.5556 22.5861 39.8102 22.6907 40.026 22.8032C40.4933 23.0463 41.1298 23.3482 41.4305 23.526C42.2266 23.9974 42.744 24.675 42.5685 25.7078C42.392 26.7463 41.7666 27.2733 40.7825 27.5327C39.8108 27.7889 38.8903 27.6465 37.9943 27.3008C37.1493 26.9744 37.303 27.0636 37.5261 25.7642Z" fill="#6366F1"/>
<path d="M31.4521 20.5049C31.6331 20.526 31.8862 20.5338 32.1703 20.5909C32.5777 20.6656 33.399 20.8594 33.1872 21.3863C32.9557 21.9617 32.9045 22.6108 31.9437 22.1844C30.9642 21.7499 30.1936 22.1531 29.8913 23.1662C29.6369 24.0184 29.5242 24.9463 30.1619 25.679C30.6786 26.2727 31.36 26.1904 32.0752 26.0374C32.4487 25.9723 32.9242 25.4405 33.0377 26.1257C33.1246 26.6498 33.3267 27.2851 32.4692 27.59C29.8872 28.5073 27.6198 26.8828 27.7169 24.1247C27.7968 21.8438 29.0864 20.5218 31.4521 20.5049Z" fill="#6366F1"/>
<path d="M70.3465 20.4922H68.9336V22.0784H70.3465V20.4922Z" fill="#6366F1"/>
<path d="M81.9456 31.6328H19V32.6427H32.5171C35.1051 32.6808 37.693 32.7098 40.2809 32.7019C40.9289 32.7 41.3955 32.8793 41.853 33.3484C43.7711 35.3152 45.7552 37.2181 47.6546 39.2025C48.225 39.7984 48.5214 39.7247 49.0539 39.1849C51.008 37.2044 53.0114 35.2723 54.9995 33.3256C55.271 33.0599 55.5853 32.6413 56.0339 32.6425H60.1144C55.2162 37.5376 49.7419 42.9136 44.7808 47.8702C44.7388 47.9123 44.77 47.9839 44.8297 47.9839C45.1011 47.9839 45.3569 47.9839 45.6125 47.9839C50.192 47.9842 54.7714 48.0017 59.3506 48.0017C60.4091 48.0017 60.347 48.0064 61.0914 47.2618C65.6241 42.7291 70.1722 38.2112 74.681 33.6546C75.1582 33.1723 75.4931 32.8328 76.0559 32.6427H81.9454V31.6328H81.9456Z" fill="#6366F1"/>
<path d="M59.8584 15.3203C59.8292 15.3203 59.8005 15.3138 59.7747 15.3002C59.4614 15.1362 59.1838 14.8876 58.91 14.6066C56.9191 12.5637 54.8733 10.5743 52.8797 8.53415C52.437 8.08109 52.2023 8.04325 51.7389 8.53162C49.7757 10.6005 47.7643 12.6235 45.7652 14.658C45.6176 14.8081 45.491 15.0789 45.322 15.2668C45.2899 15.3026 45.2428 15.3205 45.1948 15.3205H41.5722C41.4164 15.3205 41.3384 15.1326 41.4494 15.0233C46.377 10.1751 51.4611 4.98558 56.1872 0.338283C56.306 0.221583 56.2225 0.0207399 56.0559 0.0207399C55.8451 0.0205285 55.6323 0.0205285 55.5849 0.0205285C50.6894 0.0158774 45.7937 0.0258138 40.8984 2.13446e-05C40.3185 -0.00293845 40.0054 0.302343 39.6545 0.652232C34.9892 5.30079 30.313 9.93815 25.6623 14.6011C25.3883 14.8759 25.1137 15.1305 24.8046 15.2988C24.7781 15.3131 24.7483 15.3201 24.7183 15.3201H19.1742C19.078 15.3203 19 15.3983 19 15.4945V16.156C19 16.2522 19.078 16.3302 19.1742 16.3302H81.7712C81.8674 16.3302 81.9454 16.2522 81.9454 16.156V15.4945C81.9454 15.3983 81.8674 15.3203 81.7712 15.3203H59.8584Z" fill="#6366F1"/>
</g>
<defs>
<clipPath id="clip0_1_295">
<rect width="100" height="48" fill="white"/>
</clipPath>
</defs>
</svg>
