<svg width="100" height="48" viewBox="0 0 100 48" fill="none" xmlns="http://www.w3.org/2000/svg">
<path d="M79.1417 15.6548C79.4502 15.6548 79.7402 15.7331 79.9934 15.8705C80.5505 16.1732 80.9287 16.7634 80.9287 17.4418V22.5186H85.8432C86.8301 22.5186 87.6301 23.3186 87.6301 24.3056C87.6301 25.2925 86.8301 26.0928 85.8432 26.0928H80.9287V30.9105C80.9287 31.8974 80.1287 32.6975 79.1417 32.6975C78.9341 32.6975 65.4544 32.6921 65.4544 32.6921C64.4673 32.6921 63.6672 31.8921 63.6672 30.9049V24.2244H63.6714C63.7143 23.2755 64.4948 22.5186 65.4544 22.5186H77.3548V19.2288H63.6192L57.1003 31.325C56.9962 31.8604 56.6514 32.3422 56.1219 32.5966C55.8726 32.7165 55.6092 32.7733 55.3499 32.7733C54.7302 32.7733 54.1336 32.4484 53.8061 31.8865C53.7401 31.7858 53.684 31.6793 53.6397 31.5687L48.4915 21.4634L43.2834 31.3435C43.058 31.8728 42.7285 32.3419 42.199 32.5966C41.9497 32.7165 41.6862 32.7733 41.4272 32.7733C40.8073 32.7733 40.2109 32.4487 39.8832 31.8867C39.8169 31.7858 39.7609 31.6791 39.7163 31.568L33.4301 19.2285H22.931V22.5183H31.4196C32.4066 22.5183 33.2066 23.3184 33.2066 24.3053C33.2066 25.2923 32.4066 26.0925 31.4196 26.0925H22.931V31.0072C22.931 31.9942 22.1309 32.7942 21.144 32.7942C20.1571 32.7942 19.3568 31.9942 19.3568 31.0072V26.0928H14.4425C13.4556 26.0928 12.6553 25.2927 12.6553 24.3056C12.6553 23.3186 13.4554 22.5186 14.4425 22.5186H19.3568V17.4418C19.3568 16.7634 19.735 16.1732 20.2921 15.8705C20.5453 15.7331 20.8355 15.6548 21.144 15.6548H34.4657C34.7555 15.6548 35.0284 15.7253 35.2704 15.8478C35.6442 16.014 35.9634 16.3077 36.1545 16.7051L41.4233 27.0478L46.7089 17.1699C46.9748 16.6291 47.122 16.1432 47.6929 15.8686C47.9422 15.7487 48.2057 15.6919 48.4647 15.6919C48.9067 15.6919 49.3371 15.8569 49.6666 16.1551C49.9921 16.4098 50.1427 16.5821 50.3662 17.0149L55.3462 27.0475L60.9357 16.6769C61.0812 16.4215 61.2808 16.2165 61.5108 16.0662C61.8203 15.8091 62.218 15.6544 62.652 15.6544H79.1417V15.6548ZM67.1605 29.1179H77.3548V26.0928H67.1603V29.1179H67.1605ZM79.1417 11.9995H62.652C61.4545 11.9995 60.286 12.3977 59.3383 13.1246C58.6933 13.583 58.1496 14.1827 57.759 14.8694L57.738 14.906L57.7181 14.943L55.4376 19.1742C55.4376 19.1742 52.7902 13.9912 52.0218 13.3593C51.0322 12.5057 49.7745 12.037 48.4647 12.037C47.6552 12.037 46.8403 12.223 46.1085 12.5749C44.69 13.2569 43.9053 14.5071 43.2361 15.9794L41.5144 19.174L39.4248 15.0722C38.8765 13.9607 37.9617 13.0676 36.8376 12.5451C36.1002 12.1879 35.2821 11.9995 34.4657 11.9995H21.144C20.2389 11.9995 19.3412 12.2274 18.5475 12.6584C16.792 13.612 15.7014 15.4448 15.7014 17.4418V18.8633H14.4425C11.4415 18.8633 9 21.3048 9 24.3056C9 27.3066 11.4415 29.7479 14.4425 29.7479H15.7014V31.0072C15.7014 34.008 18.143 36.4496 21.144 36.4496C24.1448 36.4496 26.5863 34.008 26.5863 31.0072V29.7479H31.4196C32.4655 29.7479 33.4437 29.4513 34.274 28.9378L36.4048 33.1203C36.5115 33.3593 36.636 33.5918 36.7766 33.8141C37.759 35.4295 39.5315 36.4286 41.4272 36.4286C42.237 36.4286 43.0519 36.2424 43.7834 35.8905C45.111 35.2523 46.2642 34.175 46.8532 32.7942L48.4011 29.3372L50.3292 33.1215C50.4354 33.3593 50.559 33.5904 50.6991 33.8116C51.6811 35.4285 53.4542 36.4284 55.3506 36.4284C56.1604 36.4284 56.975 36.2422 57.7068 35.8905C58.9511 35.2925 59.9183 34.2334 60.4162 32.9616C61.2291 34.946 63.1818 36.3472 65.4552 36.3472L79.1424 36.3511C82.1432 36.3511 84.5848 34.0083 84.5848 31.0072V29.7479H85.8439C88.8447 29.7479 91.2862 27.3066 91.2862 24.3056C91.2862 21.3048 88.8447 18.8633 85.8439 18.8633H84.5848V17.4418C84.5848 15.4448 83.4942 13.612 81.739 12.6584C80.9445 12.2274 80.0468 11.9995 79.1417 11.9995Z" fill="#B4B7C9"/>
</svg>
