<svg width="24" height="24" viewBox="0 0 24 24" fill="none" xmlns="http://www.w3.org/2000/svg">
<path d="M24 2.43351C20.7719 1.91102 18.3743 2.52851 16.807 4.28598C15.2398 6.04345 14.4561 8.63215 14.4561 12.0521V21.7419H24V12.0521H19.0877C18.8304 10.3421 19.0643 8.95276 19.7895 7.88404C20.538 6.81531 21.7544 6.35219 23.4386 6.49468L24 2.43351ZM9.54386 2.43351C6.31579 1.91102 3.91813 2.52851 2.35088 4.28598C0.783626 6.04345 0 8.63215 0 12.0521V21.7419H9.54386V12.0521H4.63158C4.37427 10.3421 4.60819 8.95276 5.33333 7.88404C6.08187 6.81531 7.29824 6.35219 8.98245 6.49468L9.54386 2.43351Z" fill="white"/>
</svg>
