<svg width="134" height="34" viewBox="0 0 134 34" fill="none" xmlns="http://www.w3.org/2000/svg">
<path d="M15.4508 6.64844V2.39844H2.05078V31.5984H15.4508V27.3484C12.7058 27.3484 10.0732 26.2579 8.13222 24.3169C6.19122 22.3759 5.10078 19.7434 5.10078 16.9984C5.10078 14.2534 6.19122 11.6208 8.13222 9.67989C10.0732 7.73889 12.7058 6.64844 15.4508 6.64844Z" fill="#B4B7C9"/>
<path d="M15.4492 6.64844V27.3484C18.1942 27.3484 20.8268 26.2579 22.7678 24.3169C24.7088 22.3759 25.7992 19.7434 25.7992 16.9984C25.7992 14.2534 24.7088 11.6208 22.7678 9.67989C20.8268 7.73889 18.1942 6.64844 15.4492 6.64844Z" fill="#B4B7C9"/>
<path d="M33.3198 9.25H36.3198V23.7H33.3198V9.25Z" fill="#B4B7C9"/>
<path d="M38 18.7499C38 17.7103 38.3087 16.6941 38.8869 15.8301C39.4651 14.9661 40.2868 14.2932 41.2479 13.8967C42.209 13.5003 43.2661 13.3981 44.2853 13.6031C45.3045 13.8081 46.2399 14.3111 46.9729 15.0483C47.7059 15.7856 48.2036 16.7238 48.4028 17.7442C48.6019 18.7646 48.4937 19.8211 48.0917 20.7799C47.6897 21.7386 47.0122 22.5565 46.1449 23.1297C45.2776 23.703 44.2596 24.0058 43.22 23.9999C42.5305 24.0053 41.8468 23.873 41.2091 23.6106C40.5714 23.3483 39.9924 22.9613 39.5062 22.4724C39.02 21.9834 38.6364 21.4022 38.3777 20.763C38.1191 20.1238 37.9907 19.4394 38 18.7499ZM45.52 18.7499C45.5082 18.3017 45.3645 17.8669 45.1069 17.5C44.8493 17.133 44.4893 16.8501 44.0717 16.6867C43.6542 16.5233 43.1978 16.4866 42.7596 16.5813C42.3213 16.6759 41.9207 16.8976 41.6078 17.2188C41.2949 17.5399 41.0836 17.9461 41.0004 18.3867C40.9172 18.8273 40.9657 19.2826 41.1399 19.6957C41.3141 20.1088 41.6062 20.4615 41.9798 20.7094C42.3533 20.9574 42.7916 21.0897 43.24 21.0899C43.5453 21.0959 43.8485 21.0388 44.1307 20.9222C44.4129 20.8057 44.668 20.6322 44.8801 20.4126C45.0922 20.193 45.2567 19.9319 45.3634 19.6459C45.4701 19.3598 45.5166 19.0548 45.5 18.7499H45.52Z" fill="#B4B7C9"/>
<path d="M60.3113 13.7982V23.2082C60.3113 26.5282 57.7113 27.9382 55.0813 27.9382C54.1536 28.0143 53.2231 27.83 52.3946 27.406C51.566 26.982 50.8722 26.3351 50.3913 25.5382L52.9212 24.0782C53.1262 24.4916 53.4524 24.8326 53.8562 25.0559C54.26 25.2792 54.7222 25.3742 55.1813 25.3282C55.4738 25.3642 55.7705 25.3352 56.0504 25.2432C56.3304 25.1511 56.5866 24.9984 56.8006 24.7958C57.0147 24.5932 57.1813 24.3459 57.2886 24.0714C57.3959 23.797 57.4411 23.5022 57.4212 23.2082V22.2982C57.0721 22.7215 56.6292 23.0575 56.1276 23.2797C55.6259 23.5019 55.0793 23.6041 54.5312 23.5782C53.2052 23.5782 51.9335 23.0514 50.9958 22.1137C50.0581 21.1761 49.5312 19.9043 49.5312 18.5782C49.5312 17.2521 50.0581 15.9804 50.9958 15.0427C51.9335 14.105 53.2052 13.5782 54.5312 13.5782C55.0793 13.5523 55.6259 13.6545 56.1276 13.8767C56.6292 14.0989 57.0721 14.4349 57.4212 14.8582V13.8582L60.3113 13.7982ZM57.4212 18.5482C57.4411 18.0698 57.3175 17.5963 57.0662 17.1887C56.8149 16.7811 56.4476 16.458 56.0111 16.2609C55.5747 16.0638 55.0894 16.0018 54.6174 16.0828C54.1455 16.1638 53.7085 16.3841 53.3628 16.7154C53.0171 17.0467 52.7784 17.4739 52.6774 17.942C52.5764 18.4101 52.6177 18.8976 52.796 19.342C52.9744 19.7864 53.2816 20.1673 53.6781 20.4357C54.0747 20.7041 54.5425 20.8478 55.0213 20.8482C55.3338 20.8707 55.6475 20.8274 55.9421 20.7212C56.2368 20.6149 56.506 20.448 56.7321 20.2312C56.9583 20.0145 57.1364 19.7527 57.2551 19.4628C57.3738 19.1729 57.4304 18.8613 57.4212 18.5482Z" fill="#B4B7C9"/>
<path d="M61.9999 18.75C61.9999 17.7112 62.3081 16.6958 62.8854 15.8322C63.4627 14.9686 64.2832 14.2957 65.2431 13.8987C66.203 13.5016 67.2591 13.3982 68.2778 13.6016C69.2965 13.805 70.2319 14.306 70.9658 15.0412C71.6996 15.7765 72.1988 16.7129 72.4002 17.7319C72.6017 18.751 72.4963 19.8069 72.0974 20.766C71.6985 21.7252 71.024 22.5444 70.1594 23.1201C69.2947 23.6958 68.2787 24.002 67.2399 24C66.5491 24.0067 65.8638 23.8754 65.2244 23.6138C64.585 23.3522 64.0042 22.9656 63.5162 22.4766C63.0281 21.9876 62.6426 21.4061 62.3822 20.7662C62.1219 20.1263 61.9919 19.4408 61.9999 18.75ZM69.5199 18.75C69.5081 18.3014 69.3641 17.8662 69.1061 17.499C68.8481 17.1319 68.4874 16.849 68.0693 16.6859C67.6512 16.5228 67.1943 16.4867 66.7558 16.5822C66.3173 16.6776 65.9167 16.9004 65.6042 17.2225C65.2917 17.5446 65.0812 17.9518 64.9992 18.393C64.9171 18.8342 64.967 19.2898 65.1427 19.7027C65.3184 20.1157 65.6121 20.4676 65.987 20.7144C66.3618 20.9611 66.8011 21.0918 67.2499 21.09C67.5552 21.096 67.8584 21.0389 68.1406 20.9223C68.4228 20.8058 68.6779 20.6323 68.89 20.4127C69.1021 20.1931 69.2666 19.932 69.3733 19.646C69.48 19.3599 69.5265 19.0549 69.5099 18.75H69.5199Z" fill="#B4B7C9"/>
<path d="M73.8672 11.1511C73.8672 10.7991 73.9716 10.4549 74.1672 10.1622C74.3628 9.86946 74.6408 9.64132 74.966 9.50659C75.2913 9.37187 75.6492 9.33662 75.9945 9.4053C76.3397 9.47398 76.6569 9.64351 76.9059 9.89245C77.1548 10.1414 77.3243 10.4586 77.393 10.8038C77.4617 11.1491 77.4264 11.507 77.2917 11.8323C77.157 12.1575 76.9288 12.4355 76.6361 12.6311C76.3434 12.8267 75.9993 12.9311 75.6472 12.9311C75.1767 12.9259 74.727 12.7367 74.3943 12.404C74.0616 12.0713 73.8724 11.6216 73.8672 11.1511ZM74.1572 13.8011H77.1572V23.7011H74.1572V13.8011Z" fill="#B4B7C9"/>
<path d="M90.0005 18.7486C90.0341 19.407 89.9372 20.0656 89.7153 20.6864C89.4935 21.3072 89.151 21.878 88.7077 22.3659C88.2643 22.8539 87.7289 23.2493 87.1321 23.5295C86.5354 23.8097 85.8891 23.9691 85.2305 23.9986C84.6716 24.0358 84.1115 23.9463 83.5921 23.7368C83.0726 23.5272 82.6072 23.2031 82.2305 22.7886V27.6786H79.2305V13.7986H82.2305V14.7286C82.6077 14.3153 83.0735 13.9927 83.593 13.7849C84.1125 13.577 84.6723 13.4894 85.2305 13.5286C85.8865 13.5581 86.5302 13.7166 87.1249 13.9949C87.7196 14.2732 88.2537 14.666 88.6966 15.1507C89.1396 15.6354 89.4827 16.2026 89.7064 16.82C89.9301 17.4373 90.0301 18.0926 90.0005 18.7486ZM87.0005 18.7486C86.9887 18.2841 86.84 17.8335 86.5732 17.4532C86.3064 17.0729 85.9332 16.7797 85.5005 16.6106C85.0678 16.4414 84.5948 16.4038 84.1407 16.5023C83.6867 16.6008 83.2719 16.8312 82.9482 17.1645C82.6245 17.4978 82.4064 17.9192 82.3213 18.376C82.2361 18.8327 82.2876 19.3044 82.4694 19.732C82.6512 20.1595 82.9551 20.5239 83.3431 20.7795C83.7311 21.0351 84.1859 21.1704 84.6505 21.1686C84.9687 21.1821 85.2862 21.1282 85.5821 21.0104C85.8781 20.8926 86.1458 20.7136 86.3677 20.4851C86.5896 20.2566 86.7606 19.9837 86.8697 19.6845C86.9788 19.3852 87.0233 19.0663 87.0005 18.7486Z" fill="#B4B7C9"/>
<path d="M99.13 20.7317C99.13 23.0117 97.13 23.9817 95.01 23.9817C94.1453 24.0595 93.2772 23.8762 92.5178 23.4555C91.7584 23.0348 91.1426 22.396 90.75 21.6217L93.33 20.1617C93.4322 20.5185 93.6538 20.8294 93.9578 21.0424C94.2618 21.2554 94.6297 21.3575 95 21.3317C95.71 21.3317 96.07 21.1117 96.07 20.7117C96.07 19.6217 91.2 20.2017 91.2 16.7717C91.2 14.6117 93.02 13.5317 95.08 13.5317C95.863 13.4966 96.641 13.6743 97.3311 14.0458C98.0213 14.4173 98.598 14.9688 99 15.6417L96.42 17.0017C96.306 16.7437 96.1198 16.5243 95.8838 16.3699C95.6477 16.2155 95.372 16.1328 95.09 16.1317C94.57 16.1317 94.26 16.3317 94.26 16.6817C94.26 17.8217 99.13 17.0717 99.13 20.7317Z" fill="#B4B7C9"/>
<path d="M109.999 13.7998V23.6998H106.999V22.7698C106.658 23.1815 106.225 23.5072 105.736 23.7209C105.246 23.9346 104.713 24.0301 104.179 23.9998C102.179 23.9998 100.469 22.5698 100.469 19.8998V13.7998H103.469V19.4498C103.445 19.686 103.473 19.9245 103.551 20.1489C103.629 20.3732 103.754 20.578 103.918 20.7492C104.083 20.9203 104.283 21.0537 104.504 21.1402C104.725 21.2266 104.962 21.264 105.199 21.2498C106.279 21.2498 107.039 20.6098 107.039 19.2498V13.7998H109.999Z" fill="#B4B7C9"/>
<path d="M126.999 17.6197V23.6997H123.999V17.8797C123.999 16.8797 123.529 16.2597 122.579 16.2597C121.629 16.2597 121.029 16.9497 121.029 18.1197V23.6997H118.029V17.8797C118.029 16.8797 117.559 16.2597 116.609 16.2597C115.659 16.2597 115.059 16.9497 115.059 18.1197V23.6997H112.059V13.7997H115.059V14.7097C115.37 14.3077 115.775 13.9893 116.24 13.7833C116.704 13.5773 117.213 13.4901 117.719 13.5297C118.226 13.5032 118.732 13.6092 119.186 13.8371C119.64 14.065 120.027 14.4071 120.309 14.8297C120.639 14.3881 121.075 14.0373 121.577 13.81C122.078 13.5826 122.63 13.4862 123.179 13.5297C125.519 13.5297 126.999 15.1497 126.999 17.6197Z" fill="#B4B7C9"/>
<path d="M129.52 13.7401C130.735 13.7401 131.72 12.7551 131.72 11.5401C131.72 10.3251 130.735 9.34009 129.52 9.34009C128.305 9.34009 127.32 10.3251 127.32 11.5401C127.32 12.7551 128.305 13.7401 129.52 13.7401Z" fill="#B4B7C9"/>
</svg>
