<svg width="140" height="30" viewBox="0 0 140 30" fill="none" xmlns="http://www.w3.org/2000/svg">
<path d="M22.4191 13.3693C22.0401 13.7506 21.7499 14.2108 21.569 14.717C21.3882 15.2233 21.3213 15.7632 21.373 16.2983L21.355 16.2803C21.4082 16.9102 21.3232 17.544 21.1061 18.1377C20.889 18.7313 20.5451 19.2704 20.0982 19.7174C19.6512 20.1643 19.112 20.5084 18.5183 20.7254C17.9247 20.9425 17.2908 21.0275 16.661 20.9743L16.6791 20.9923C15.9257 20.9222 15.1689 21.0861 14.512 21.4618C13.8552 21.8375 13.3302 22.4066 13.0087 23.0916C12.6872 23.7766 12.5847 24.544 12.7153 25.2894C12.846 26.0347 13.2033 26.7216 13.7386 27.2564C14.2739 27.7912 14.9611 28.1479 15.7065 28.2778C16.452 28.4078 17.2193 28.3046 17.904 27.9825C18.5887 27.6603 19.1573 27.1349 19.5324 26.4777C19.9075 25.8205 20.0708 25.0637 20 24.3103L20.019 24.3283C19.9658 23.6985 20.0507 23.0646 20.2678 22.4709C20.4849 21.8773 20.829 21.3382 21.2759 20.8912C21.7229 20.4443 22.262 20.1002 22.8556 19.8832C23.4494 19.6661 24.0831 19.5811 24.713 19.6343L24.694 19.6163C25.3095 19.6716 25.929 19.5707 26.4951 19.3229C27.0611 19.0751 27.5554 18.6884 27.9322 18.1987C28.309 17.709 28.5562 17.132 28.6507 16.5214C28.7451 15.9107 28.684 15.2861 28.4727 14.7053C28.2615 14.1246 27.9071 13.6066 27.4424 13.1993C26.9777 12.792 26.4178 12.5086 25.8144 12.3754C25.2109 12.2422 24.5837 12.2634 23.9907 12.4371C23.3976 12.6109 22.8582 12.9315 22.4221 13.3693H22.4191Z" fill="#B4B7C9"/>
<path d="M15.0422 18.636L15.0232 18.618C15.5585 18.6719 16.0991 18.6062 16.606 18.4256C17.1128 18.245 17.5732 17.9541 17.9538 17.5738C18.3343 17.1935 18.6257 16.7333 18.8066 16.2266C18.9876 15.7199 19.0537 15.1794 19.0002 14.644L19.0192 14.662C18.966 14.0321 19.051 13.3983 19.268 12.8046C19.4851 12.211 19.8292 11.6719 20.2761 11.2249C20.7231 10.778 21.2622 10.4339 21.8558 10.2169C22.4495 9.99976 23.0833 9.91483 23.7132 9.968L23.6942 9.95C24.4477 10.0208 25.2046 9.85736 25.8618 9.4821C26.5191 9.10684 27.0445 8.53797 27.3665 7.8531C27.6885 7.16824 27.7914 6.40071 27.6612 5.6552C27.531 4.90969 27.174 4.22251 26.6388 3.68737C26.1037 3.15224 25.4165 2.7952 24.671 2.66498C23.9255 2.53475 23.158 2.63766 22.4731 2.95968C21.7882 3.28169 21.2194 3.80714 20.8441 4.46435C20.4688 5.12155 20.3054 5.87852 20.3762 6.632L20.3582 6.613C20.4115 7.24289 20.3267 7.87683 20.1097 8.47055C19.8927 9.06427 19.5486 9.60346 19.1017 10.0505C18.6547 10.4974 18.1155 10.8415 17.5218 11.0585C16.928 11.2755 16.2941 11.3603 15.6642 11.307L15.6822 11.326C15.1469 11.2721 14.6062 11.3378 14.0994 11.5184C13.5926 11.6989 13.1322 11.9899 12.7516 12.3702C12.371 12.7505 12.0797 13.2107 11.8987 13.7174C11.7178 14.2241 11.6517 14.7646 11.7052 15.3L11.6872 15.282C11.7402 15.9118 11.6551 16.5456 11.438 17.1392C11.2208 17.7327 10.8768 18.2718 10.4299 18.7187C9.98291 19.1656 9.44387 19.5096 8.85031 19.7268C8.25675 19.9439 7.62296 20.029 6.99315 19.976L7.01115 19.994C6.25767 19.9232 5.5007 20.0866 4.84349 20.4619C4.18629 20.8372 3.66084 21.406 3.33883 22.0909C3.01681 22.7758 2.91389 23.5433 3.04412 24.2888C3.17435 25.0343 3.53139 25.7215 4.06652 26.2566C4.60166 26.7918 5.28884 27.1488 6.03435 27.279C6.77986 27.4092 7.54739 27.3063 8.23226 26.9843C8.91712 26.6623 9.48599 26.1369 9.86125 25.4797C10.2366 24.8224 10.4 24.0655 10.3292 23.312L10.3482 23.33C10.295 22.7001 10.38 22.0663 10.5971 21.4726C10.8141 20.879 11.1582 20.3399 11.6051 19.8929C12.0521 19.446 12.5912 19.1019 13.1848 18.8849C13.7785 18.6678 14.4123 18.5828 15.0422 18.636Z" fill="#B4B7C9"/>
<path d="M8.34021 16.6289C8.71923 16.2477 9.00941 15.7875 9.19005 15.2812C9.37069 14.7749 9.43733 14.2349 9.38521 13.6999L9.4042 13.7179C9.351 13.0879 9.43596 12.4538 9.65317 11.86C9.87038 11.2662 10.2146 10.727 10.6618 10.28C11.109 9.83306 11.6483 9.48907 12.2422 9.27212C12.8361 9.05516 13.4702 8.97046 14.1002 9.02394L14.0812 9.00594C14.8344 9.07651 15.5911 8.91302 16.248 8.53778C16.9049 8.16255 17.43 7.59382 17.7519 6.90917C18.0737 6.22451 18.1765 5.45726 18.0463 4.71203C17.9161 3.9668 17.5591 3.27988 17.0242 2.74494C16.4893 2.21 15.8023 1.85308 15.0571 1.72286C14.3119 1.59263 13.5446 1.69545 12.86 2.01727C12.1753 2.33909 11.6066 2.86426 11.2314 3.52116C10.8561 4.17806 10.6926 4.93472 10.7632 5.68794L10.7452 5.66994C10.7984 6.29979 10.7134 6.93366 10.4963 7.5273C10.2792 8.12094 9.93523 8.66005 9.48827 9.10701C9.04132 9.55397 8.5022 9.898 7.90856 10.115C7.31492 10.3321 6.68106 10.4171 6.05121 10.3639L6.06921 10.3819C5.45378 10.3267 4.83437 10.4278 4.26839 10.6757C3.70241 10.9236 3.20816 11.3104 2.83145 11.8002C2.45474 12.2899 2.20776 12.8669 2.11338 13.4775C2.01901 14.0882 2.0803 14.7128 2.29157 15.2934C2.50284 15.8741 2.85727 16.392 3.322 16.7992C3.78673 17.2065 4.34673 17.4898 4.95011 17.623C5.55348 17.7561 6.18071 17.7348 6.77368 17.5611C7.36664 17.3873 7.90614 17.0667 8.3422 16.6289H8.34021Z" fill="#B4B7C9"/>
<path d="M39.3164 6.65625H42.2864V21.1092H39.3164V6.65625Z" fill="#B4B7C9"/>
<path d="M43.9689 16.1591C43.9648 15.1205 44.269 14.1039 44.843 13.2383C45.417 12.3727 46.235 11.6969 47.1934 11.2966C48.1518 10.8962 49.2074 10.7893 50.2266 10.9894C51.2458 11.1895 52.1827 11.6875 52.9186 12.4205C53.6545 13.1534 54.1563 14.0883 54.3605 15.1067C54.5647 16.1251 54.462 17.1812 54.0655 18.1412C53.669 19.1011 52.9965 19.9219 52.1332 20.4993C51.2698 21.0768 50.2546 21.3851 49.2159 21.3851C48.5265 21.393 47.8424 21.2633 47.2036 21.0037C46.5648 20.7441 45.9842 20.3598 45.4957 19.8733C45.0071 19.3867 44.6205 18.8076 44.3584 18.1699C44.0962 17.5322 43.9638 16.8486 43.9689 16.1591ZM51.4929 16.1591C51.4805 15.7114 51.3364 15.2773 51.0787 14.911C50.8209 14.5448 50.4609 14.2626 50.0437 14.0999C49.6264 13.9371 49.1705 13.9009 48.7328 13.9959C48.2951 14.0909 47.8951 14.3127 47.5828 14.6338C47.2706 14.9548 47.0598 15.3608 46.9771 15.801C46.8943 16.2411 46.943 16.6959 47.1173 17.1085C47.2916 17.5211 47.5836 17.8731 47.9568 18.1206C48.3301 18.3681 48.7681 18.5001 49.2159 18.5001C49.5226 18.5083 49.8277 18.4528 50.112 18.3372C50.3962 18.2216 50.6534 18.0484 50.8673 17.8285C51.0812 17.6085 51.2473 17.3466 51.3549 17.0593C51.4626 16.772 51.5096 16.4655 51.4929 16.1591Z" fill="#B4B7C9"/>
<path d="M66.2989 11.2088V20.6088C66.2989 23.9348 63.7049 25.3408 61.0719 25.3408C60.1449 25.4102 59.2166 25.2229 58.3889 24.7996C57.5613 24.3762 56.8662 23.7331 56.3799 22.9408L58.9139 21.4758C59.1183 21.8888 59.444 22.2295 59.8473 22.4524C60.2507 22.6752 60.7125 22.7696 61.1709 22.7228C61.4639 22.7634 61.7623 22.7376 62.044 22.6473C62.3256 22.557 62.5834 22.4045 62.7982 22.2012C63.013 21.9978 63.1793 21.7488 63.2849 21.4724C63.3904 21.1961 63.4324 20.8996 63.4079 20.6048V19.6998C63.0601 20.1253 62.6175 20.4634 62.1154 20.6869C61.6133 20.9104 61.0659 21.0131 60.5169 20.9868C59.2107 20.9456 57.9718 20.3978 57.0624 19.4592C56.153 18.5207 55.6445 17.2651 55.6445 15.9583C55.6445 14.6515 56.153 13.3959 57.0624 12.4574C57.9718 11.5188 59.2107 10.971 60.5169 10.9298C61.0659 10.9035 61.6133 11.0062 62.1154 11.2297C62.6175 11.4532 63.0601 11.7913 63.4079 12.2168V11.2068L66.2989 11.2088ZM63.4089 15.9598C63.4289 15.4812 63.3051 15.0075 63.0536 14.5998C62.8021 14.192 62.4343 13.8689 61.9976 13.672C61.5609 13.475 61.0753 13.4133 60.6032 13.4947C60.1311 13.5761 59.6942 13.7969 59.3486 14.1288C59.0031 14.4606 58.7648 14.8882 58.6643 15.3566C58.5639 15.825 58.6059 16.3128 58.7851 16.7571C58.9642 17.2014 59.2722 17.582 59.6694 17.8498C60.0666 18.1176 60.5349 18.2604 61.0139 18.2598C61.326 18.2816 61.6391 18.2378 61.9332 18.1312C62.2273 18.0246 62.4958 17.8575 62.7214 17.6409C62.947 17.4242 63.1248 17.1627 63.2432 16.8731C63.3616 16.5836 63.4181 16.2725 63.4089 15.9598Z" fill="#B4B7C9"/>
<path d="M67.9806 16.1586C67.9765 15.12 68.2806 14.1034 68.8547 13.2378C69.4287 12.3722 70.2467 11.6964 71.2051 11.2961C72.1635 10.8957 73.2191 10.7888 74.2383 10.9889C75.2575 11.189 76.1944 11.687 76.9303 12.42C77.6662 13.1529 78.168 14.0878 78.3722 15.1062C78.5764 16.1246 78.4737 17.1807 78.0772 18.1407C77.6807 19.1006 77.0082 19.9214 76.1449 20.4988C75.2815 21.0763 74.2663 21.3846 73.2276 21.3846C72.5382 21.3925 71.854 21.2628 71.2153 21.0032C70.5765 20.7436 69.9959 20.3593 69.5074 19.8728C69.0188 19.3862 68.6322 18.8071 68.3701 18.1694C68.1079 17.5317 67.9755 16.8481 67.9806 16.1586ZM75.5046 16.1586C75.4922 15.7109 75.3481 15.2768 75.0904 14.9105C74.8326 14.5443 74.4726 14.2621 74.0554 14.0994C73.6381 13.9366 73.1821 13.9004 72.7445 13.9954C72.3068 14.0904 71.9068 14.3122 71.5945 14.6333C71.2823 14.9543 71.0715 15.3603 70.9887 15.8005C70.9059 16.2406 70.9547 16.6954 71.129 17.108C71.3033 17.5206 71.5953 17.8726 71.9685 18.1201C72.3418 18.3676 72.7797 18.4996 73.2276 18.4996C73.5343 18.5078 73.8394 18.4523 74.1236 18.3367C74.4079 18.2211 74.6651 18.0479 74.879 17.828C75.0929 17.608 75.259 17.3461 75.3666 17.0588C75.4743 16.7715 75.5213 16.465 75.5046 16.1586Z" fill="#B4B7C9"/>
<path d="M79.8594 8.55642C79.8594 8.20397 79.9639 7.85944 80.1597 7.5664C80.3555 7.27335 80.6339 7.04494 80.9595 6.91007C81.2851 6.77519 81.6434 6.7399 81.9891 6.80866C82.3347 6.87742 82.6523 7.04714 82.9015 7.29636C83.1507 7.54557 83.3204 7.86309 83.3892 8.20877C83.4579 8.55444 83.4226 8.91274 83.2878 9.23836C83.1529 9.56398 82.9245 9.84229 82.6314 10.0381C82.3384 10.2339 81.9939 10.3384 81.6414 10.3384C81.1703 10.3337 80.7197 10.1445 80.3865 9.8113C80.0534 9.47812 79.8641 9.02758 79.8594 8.55642ZM80.1594 11.2094H83.1304V21.1094H80.1554L80.1594 11.2094Z" fill="#B4B7C9"/>
<path d="M95.9562 16.159C95.9905 16.8133 95.8952 17.4679 95.6756 18.0852C95.4561 18.7025 95.1167 19.2703 94.6769 19.756C94.2372 20.2416 93.7057 20.6356 93.1132 20.9152C92.5206 21.1947 91.8787 21.3544 91.2242 21.385C90.6738 21.415 90.1237 21.3222 89.6136 21.1133C89.1035 20.9043 88.6464 20.5845 88.2752 20.177V25.068H85.3052V11.209H88.2752V12.139C88.6465 11.7318 89.1038 11.4122 89.6138 11.2035C90.1239 10.9947 90.6739 10.902 91.2242 10.932C91.8788 10.9625 92.5209 11.1221 93.1136 11.4017C93.7063 11.6813 94.2378 12.0753 94.6776 12.5611C95.1174 13.0469 95.4568 13.6149 95.6762 14.2324C95.8956 14.8498 95.9908 15.5046 95.9562 16.159ZM92.9862 16.159C92.9746 15.6957 92.8266 15.2461 92.5607 14.8664C92.2948 14.4868 91.9229 14.194 91.4915 14.0248C91.06 13.8555 90.5882 13.8172 90.1351 13.9148C89.682 14.0123 89.2678 14.2413 88.9442 14.5731C88.6206 14.905 88.4021 15.3248 88.316 15.7803C88.2299 16.2357 88.28 16.7063 88.4601 17.1334C88.6401 17.5605 88.9422 17.9249 89.3284 18.1812C89.7146 18.4374 90.1677 18.5741 90.6312 18.574C90.9494 18.5882 91.267 18.5349 91.5632 18.4177C91.8593 18.3006 92.1274 18.1221 92.3497 17.8941C92.5721 17.666 92.7437 17.3936 92.8534 17.0946C92.9631 16.7956 93.0084 16.4767 92.9862 16.159Z" fill="#B4B7C9"/>
<path d="M105.121 18.1381C105.121 20.4151 103.142 21.3851 101.004 21.3851C100.14 21.4633 99.2728 21.2807 98.5139 20.8606C97.755 20.4406 97.1396 19.8026 96.7471 19.0291L99.3201 17.5641C99.4242 17.9216 99.6478 18.2327 99.9535 18.4452C100.259 18.6578 100.629 18.7591 101 18.7321C101.712 18.7321 102.069 18.5141 102.069 18.1191C102.069 17.0291 97.1981 17.6041 97.1981 14.1791C97.1981 12.0201 99.0201 10.9321 101.079 10.9321C101.853 10.9076 102.619 11.0912 103.298 11.4637C103.977 11.8363 104.544 12.3841 104.939 13.0501L102.405 14.4161C102.294 14.1568 102.109 13.9359 101.873 13.781C101.637 13.6261 101.361 13.5441 101.079 13.5451C100.564 13.5451 100.247 13.7451 100.247 14.0991C100.251 15.2281 105.121 14.4751 105.121 18.1381Z" fill="#B4B7C9"/>
<path d="M115.969 11.2109V21.1109H112.999V20.1799C112.656 20.5907 112.221 20.9144 111.729 21.1244C111.237 21.3344 110.703 21.4247 110.169 21.3879C108.169 21.3879 106.469 19.9629 106.469 17.2879V11.2109H109.439V16.8529C109.414 17.0887 109.441 17.3271 109.518 17.5514C109.594 17.7758 109.719 17.9808 109.883 18.1521C110.047 18.3234 110.246 18.4569 110.467 18.5434C110.687 18.6299 110.924 18.6673 111.161 18.6529C112.25 18.6529 113.002 18.0199 113.002 16.6139V11.2139L115.969 11.2109Z" fill="#B4B7C9"/>
<path d="M133.001 15.0297V21.1077H130.031V15.2867C130.031 14.2967 129.556 13.6637 128.606 13.6637C127.616 13.6637 127.061 14.3567 127.061 15.5247V21.1077H124.092V15.2867C124.092 14.2967 123.617 13.6637 122.666 13.6637C121.676 13.6637 121.122 14.3567 121.122 15.5247V21.1077H118.152V11.2077H121.122V12.1177C121.43 11.714 121.834 11.3938 122.297 11.1865C122.761 10.9791 123.269 10.8912 123.775 10.9307C124.283 10.9058 124.789 11.0131 125.244 11.242C125.698 11.4708 126.085 11.8136 126.368 12.2367C126.697 11.794 127.133 11.442 127.635 11.2136C128.137 10.9852 128.689 10.8879 129.239 10.9307C131.512 10.9317 133.001 12.5547 133.001 15.0297Z" fill="#B4B7C9"/>
<path d="M135.513 11.1463C136.73 11.1463 137.717 10.1595 137.717 8.94228C137.717 7.72504 136.73 6.73828 135.513 6.73828C134.296 6.73828 133.309 7.72504 133.309 8.94228C133.309 10.1595 134.296 11.1463 135.513 11.1463Z" fill="#B4B7C9"/>
</svg>
