<svg width="124" height="32" viewBox="0 0 124 32" fill="none" xmlns="http://www.w3.org/2000/svg">
<path d="M36.8711 10.0697H39.8711V22.1997H36.8711V10.0697ZM41.0611 17.6197C41.0611 14.6197 42.9011 12.8297 45.7411 12.8297C48.5811 12.8297 50.4211 14.6197 50.4211 17.6197C50.4211 20.6197 48.6211 22.4197 45.7411 22.4197C42.8611 22.4197 41.0611 20.6697 41.0611 17.6197ZM47.4111 17.6197C47.4111 15.9697 46.7611 14.9997 45.7411 14.9997C44.7211 14.9997 44.0811 15.9997 44.0811 17.6197C44.0811 19.2397 44.7111 20.2197 45.7411 20.2197C46.7711 20.2197 47.4111 19.2997 47.4111 17.6297V17.6197ZM51.5511 22.7897H54.4311C54.5682 23.0942 54.7999 23.3463 55.0918 23.5085C55.3837 23.6706 55.7202 23.7342 56.0511 23.6897C57.1911 23.6897 57.7911 23.0697 57.7911 22.1697V20.4897H57.7311C57.4921 21.0046 57.1042 21.436 56.6176 21.7284C56.131 22.0207 55.5679 22.1605 55.0011 22.1297C52.8111 22.1297 51.3611 20.4597 51.3611 17.5897C51.3611 14.7197 52.7411 12.9097 55.0411 12.9097C55.6257 12.8868 56.2033 13.0431 56.6966 13.3576C57.1899 13.6722 57.5753 14.13 57.8011 14.6697V12.9997H60.8011V22.0997C60.8011 24.2897 58.8711 25.6497 56.0211 25.6497C53.3711 25.6497 51.7211 24.4597 51.5511 22.7997V22.7897ZM57.8011 17.6097C57.8011 16.1497 57.1311 15.2297 56.0711 15.2297C55.0111 15.2297 54.3611 16.1397 54.3611 17.6097C54.3611 19.0797 55.0011 19.9097 56.0711 19.9097C57.1411 19.9097 57.8011 19.0997 57.8011 17.6197V17.6097ZM61.9311 17.6097C61.9311 14.6097 63.7711 12.8197 66.6111 12.8197C69.4511 12.8197 71.3011 14.6097 71.3011 17.6097C71.3011 20.6097 69.5011 22.4097 66.6111 22.4097C63.7211 22.4097 61.9311 20.6697 61.9311 17.6197V17.6097ZM68.2811 17.6097C68.2811 15.9597 67.6311 14.9897 66.6111 14.9897C65.5911 14.9897 65.0011 15.9997 65.0011 17.6297C65.0011 19.2597 65.6311 20.2297 66.6511 20.2297C67.6711 20.2297 68.2811 19.2997 68.2811 17.6297V17.6097ZM72.4411 10.8197C72.4332 10.5168 72.5155 10.2184 72.6774 9.96231C72.8394 9.70621 73.0737 9.50396 73.3507 9.3812C73.6277 9.25844 73.9349 9.2207 74.2334 9.27275C74.5319 9.32481 74.8082 9.46431 75.0273 9.67358C75.2465 9.88286 75.3985 10.1525 75.4642 10.4483C75.5299 10.7441 75.5063 11.0527 75.3963 11.3351C75.2864 11.6174 75.0951 11.8608 74.8467 12.0343C74.5984 12.2078 74.304 12.3037 74.0011 12.3097C73.8003 12.3235 73.5988 12.2956 73.4093 12.2278C73.2197 12.16 73.0463 12.0538 72.8998 11.9157C72.7533 11.7777 72.6369 11.6108 72.558 11.4256C72.479 11.2405 72.4392 11.041 72.4411 10.8397V10.8197ZM72.4411 13.0197H75.4411V22.1997H72.4411V13.0197ZM86.3311 17.6097C86.3311 20.6097 85.0011 22.3197 82.7211 22.3197C82.1365 22.3572 81.5544 22.2143 81.0536 21.9103C80.5528 21.6062 80.1575 21.1557 79.9211 20.6197H79.8611V25.1397H76.8611V12.9997H79.8611V14.6397H79.9211C80.1465 14.0948 80.5343 13.6326 81.0317 13.3159C81.5291 12.9992 82.112 12.8434 82.7011 12.8697C85.0011 12.9097 86.3711 14.6297 86.3711 17.6297L86.3311 17.6097ZM83.3311 17.6097C83.3311 16.1497 82.6611 15.2197 81.6111 15.2197C80.5611 15.2197 79.8911 16.1597 79.8811 17.6097C79.8711 19.0597 80.5611 19.9897 81.6111 19.9897C82.6611 19.9897 83.3311 19.0797 83.3311 17.6297V17.6097ZM91.4811 12.8097C93.9711 12.8097 95.4811 13.9897 95.5511 15.8797H92.8211C92.8211 15.2297 92.2811 14.8197 91.4511 14.8197C90.6211 14.8197 90.2511 15.1397 90.2511 15.6097C90.2511 16.0797 90.5811 16.2297 91.2511 16.3697L93.1711 16.7597C95.0011 17.1497 95.7811 17.8897 95.7811 19.2797C95.7811 21.1797 94.0511 22.3997 91.5011 22.3997C88.9511 22.3997 87.2811 21.1797 87.1511 19.3097H90.0411C90.1311 19.9897 90.6711 20.3897 91.5511 20.3897C92.4311 20.3897 92.8311 20.0997 92.8311 19.6197C92.8311 19.1397 92.5511 19.0397 91.8311 18.8897L90.1011 18.5197C88.3111 18.1497 87.3711 17.1997 87.3711 15.7997C87.3911 13.9997 89.0011 12.8297 91.4811 12.8297V12.8097ZM105.791 22.1797H102.901V20.4697H102.841C102.682 21.0438 102.332 21.5463 101.848 21.8938C101.364 22.2412 100.776 22.4127 100.181 22.3797C99.7253 22.4056 99.2693 22.3334 98.8438 22.1679C98.4183 22.0024 98.0333 21.7476 97.7148 21.4205C97.3963 21.0935 97.1516 20.7018 96.9975 20.2721C96.8433 19.8424 96.7832 19.3846 96.8211 18.9297V12.9997H99.8211V18.2397C99.8211 19.3297 100.381 19.9097 101.311 19.9097C101.529 19.9101 101.745 19.864 101.944 19.7743C102.142 19.6846 102.32 19.5534 102.464 19.3896C102.607 19.2257 102.715 19.033 102.778 18.8244C102.841 18.6157 102.86 18.3959 102.831 18.1797V12.9997H105.831L105.791 22.1797ZM107.241 12.9997H110.141V14.7697H110.201C110.36 14.2032 110.703 13.7054 111.175 13.3544C111.647 13.0034 112.223 12.8188 112.811 12.8297C113.41 12.7818 114.004 12.9609 114.477 13.3315C114.949 13.7021 115.265 14.2369 115.361 14.8297H115.421C115.602 14.2306 115.978 13.709 116.489 13.3469C116.999 12.9848 117.616 12.8028 118.241 12.8297C118.649 12.816 119.055 12.8883 119.433 13.0419C119.812 13.1954 120.153 13.4269 120.436 13.7211C120.719 14.0154 120.937 14.3659 121.076 14.7498C121.214 15.1337 121.271 15.5426 121.241 15.9497V22.1997H118.241V16.7497C118.241 15.7497 117.791 15.2897 116.951 15.2897C116.764 15.2881 116.578 15.3267 116.407 15.4029C116.236 15.4791 116.083 15.5911 115.959 15.7314C115.835 15.8717 115.742 16.0369 115.687 16.216C115.632 16.3952 115.617 16.584 115.641 16.7697V22.1997H112.791V16.7097C112.791 15.7897 112.341 15.2897 111.521 15.2897C111.332 15.2898 111.144 15.33 110.972 15.4077C110.799 15.4855 110.644 15.599 110.519 15.7407C110.393 15.8824 110.299 16.0492 110.242 16.2301C110.186 16.4109 110.168 16.6016 110.191 16.7897V22.1997H107.191L107.241 12.9997Z" fill="#B4B7C9"/>
<path d="M28.4816 10.6199C27.9727 9.45625 27.2992 8.37182 26.4816 7.39989C25.2731 5.92023 23.7649 4.71328 22.0563 3.85849C20.3477 3.00371 18.4774 2.52046 16.5686 2.44055C14.6598 2.36064 12.7557 2.68588 10.9816 3.39488C9.20753 4.10387 7.60373 5.18054 6.27576 6.55402C4.94778 7.92749 3.92573 9.56664 3.27688 11.3636C2.62803 13.1605 2.36708 15.0745 2.51122 16.9795C2.65537 18.8846 3.20132 20.7375 4.11316 22.4163C5.025 24.0952 6.28205 25.5619 7.80157 26.7199C8.77657 27.4778 9.85392 28.0939 11.0016 28.5499C12.6106 29.2093 14.3327 29.5489 16.0716 29.5499C19.661 29.542 23.1008 28.1112 25.6371 25.5712C28.1733 23.0312 29.599 19.5893 29.6016 15.9999C29.6042 14.1484 29.2229 12.3165 28.4816 10.6199ZM16.0616 5.18988C17.6232 5.18972 19.1659 5.53102 20.5816 6.18988C20.2364 6.33905 19.8734 6.44324 19.5016 6.49989C18.2782 6.67698 17.1449 7.24496 16.2708 8.11906C15.3967 8.99315 14.8287 10.1265 14.6516 11.3499C14.5739 12.036 14.2618 12.6743 13.7681 13.1571C13.2744 13.6399 12.6293 13.9375 11.9416 13.9999C10.7182 14.177 9.58483 14.745 8.71074 15.6191C7.83665 16.4932 7.26866 17.6265 7.09157 18.8499C7.03161 19.5023 6.75326 20.1154 6.30157 20.5899C5.52222 18.9432 5.17212 17.126 5.28384 15.3076C5.39556 13.4892 5.96547 11.7286 6.94054 10.1896C7.9156 8.65068 9.26414 7.3834 10.8607 6.50573C12.4572 5.62806 14.2498 5.16853 16.0716 5.16988L16.0616 5.18988ZM7.79157 22.9999C7.91157 22.8899 8.03157 22.7899 8.15157 22.6699C9.04122 21.8074 9.61228 20.6688 9.77157 19.4399C9.83615 18.7491 10.1446 18.1039 10.6416 17.6199C11.1199 17.1221 11.7636 16.8162 12.4516 16.7599C13.675 16.5828 14.8083 16.0148 15.6824 15.1407C16.5565 14.2666 17.1245 13.1333 17.3016 11.9099C17.3449 11.1874 17.6549 10.5067 18.1716 9.99989C18.6617 9.51174 19.3115 9.21699 20.0016 9.16988C21.1255 9.01525 22.1737 8.5156 23.0016 7.73989C23.9443 8.52196 24.7429 9.46278 25.3616 10.5199C25.3236 10.5712 25.28 10.6182 25.2316 10.6599C24.7543 11.1621 24.1114 11.4747 23.4216 11.5399C22.1969 11.7139 21.0619 12.2809 20.1872 13.1555C19.3126 14.0302 18.7456 15.1652 18.5716 16.3899C18.5011 17.0783 18.1948 17.7212 17.7046 18.2096C17.2143 18.6981 16.5703 19.002 15.8816 19.0699C14.6546 19.2456 13.5171 19.8125 12.6379 20.6862C11.7588 21.56 11.1849 22.694 11.0016 23.9199C10.9478 24.4086 10.7799 24.8779 10.5116 25.2899C9.48556 24.6807 8.56666 23.9071 7.79157 22.9999ZM16.0616 26.8599C15.0469 26.861 14.037 26.7196 13.0616 26.4399C13.3953 25.8179 13.6122 25.14 13.7016 24.4399C13.7717 23.753 14.0766 23.1113 14.5648 22.6231C15.053 22.1349 15.6947 21.83 16.3816 21.7599C17.6068 21.5848 18.7424 21.0177 19.6185 20.1434C20.4945 19.2692 21.064 18.1347 21.2416 16.9099C21.3117 16.223 21.6166 15.5813 22.1048 15.0931C22.593 14.6049 23.2347 14.3 23.9216 14.2299C24.8436 14.11 25.7224 13.7667 26.4816 13.2299C26.9032 14.8278 26.9531 16.501 26.6276 18.1212C26.3021 19.7414 25.6097 21.2656 24.6037 22.5767C23.5977 23.8877 22.3048 24.951 20.824 25.6848C19.3433 26.4186 17.7142 26.8035 16.0616 26.8099V26.8599Z" fill="#B4B7C9"/>
</svg>
