<svg width="14" height="14" viewBox="0 0 14 14" fill="none" xmlns="http://www.w3.org/2000/svg">
<path d="M13.6312 5.1195C13.5452 4.8675 13.3178 4.6895 13.0525 4.66883L9.25182 4.36683L7.60716 0.726163C7.49982 0.486829 7.26182 0.333496 6.99982 0.333496C6.73782 0.333496 6.49982 0.486829 6.39249 0.725496L4.74782 4.36683L0.947157 4.66883C0.68649 4.6895 0.461823 4.86083 0.373156 5.10683C0.28449 5.35283 0.347157 5.62816 0.53449 5.81083L3.34316 8.54883L2.34982 12.8502C2.28849 13.1162 2.39582 13.3928 2.62049 13.5482C2.73516 13.6268 2.86716 13.6668 2.99982 13.6668C3.12849 13.6668 3.25782 13.6295 3.36982 13.5548L6.99982 11.1348L10.6298 13.5548C10.8618 13.7095 11.1665 13.7035 11.3932 13.5388C11.6185 13.3742 11.7178 13.0855 11.6412 12.8175L10.4218 8.55083L13.4458 5.8295C13.6438 5.65083 13.7165 5.37216 13.6312 5.1195Z" fill="#FFBA08"/>
</svg>
