<svg width="100" height="48" viewBox="0 0 100 48" fill="none" xmlns="http://www.w3.org/2000/svg">
<path d="M9 26.7349V30.3872C37.2606 28.7066 16.2433 27.8336 9 26.7349Z" fill="#B4B7C9"/>
<path d="M9 32.77V36.3565L9.23622 36.4156C30.7663 34.4285 24.5864 33.7041 9 32.77Z" fill="#B4B7C9"/>
<path d="M9 1V12.793C26.7193 12.1938 26.8068 11.1894 17.6176 9.97181L19.2705 7.96496C30.6156 9.70603 29.8962 12.5577 21.7495 13.9857C24.4793 14.9456 34.1553 16.7247 22.4577 20.2423C24.3613 20.7595 35.0962 23.4168 21.7495 25.7906C23.8641 26.7455 35.0843 28.1151 22.2215 31.5751C25.5521 32.1221 34.1108 33.9467 22.8119 37.5957C27.0836 38.0426 27.5665 38.1908 28.7142 40.1929V47.8661H33.9084V1H9Z" fill="#B4B7C9"/>
<path d="M9 21.1875V24.8472C14.3159 23.8016 38.5803 23.3773 9 21.1875Z" fill="#B4B7C9"/>
<path d="M9 14.9497V18.8259C25.6116 17.9323 31.224 16.775 9 14.9497Z" fill="#B4B7C9"/>
<path d="M40.0099 13.4987H37.1758V12.9414H43.4478V13.4987H40.6143V21.0718H40.0099V13.4987Z" fill="#B4B7C9"/>
<path d="M44.981 12.9414H45.5851V16.7048H50.7886V12.9414H51.3927V21.0718H50.7886V17.2618H45.5851V21.0718H44.981V12.9414Z" fill="#B4B7C9"/>
<path d="M53.508 12.9414H59.2921V13.4987H54.1121V16.6929H58.7695V17.2507H54.1121V20.5145H59.3503V21.0718H53.5078V12.9414H53.508Z" fill="#B4B7C9"/>
<path d="M37.5977 25.7445H40.2957L41.902 31.0754L43.6789 25.7188H45.8772L47.6534 31.0754L49.2597 25.7445H51.9055L48.8255 35.0242H46.6008L44.7579 29.7201L42.9022 35.0242H40.6774L37.5977 25.7445Z" fill="#B4B7C9"/>
<path d="M51.9023 30.2751V30.2402C51.9023 27.4712 53.883 25.2803 56.6876 25.2803C59.9479 25.2803 61.4547 27.6816 61.4547 30.4681C61.4547 30.6784 61.4547 30.9238 61.4375 31.1521H55.0927C55.3554 32.1859 56.1093 32.7116 57.1428 32.7116C57.9498 32.7116 58.563 32.4138 59.2466 31.7477L61.0864 33.2727C60.1754 34.429 58.861 35.2003 56.9856 35.2003C54.0064 35.2001 51.9023 33.2024 51.9023 30.2751ZM58.3521 29.4516C58.2296 28.3995 57.5991 27.7334 56.6876 27.7334C55.8106 27.7334 55.2154 28.3995 55.0399 29.4516H58.3521Z" fill="#B4B7C9"/>
<path d="M63.2658 25.7461H67.9913C69.1498 25.7461 69.9657 26.0356 70.5055 26.5624C70.8738 26.9438 71.0977 27.431 71.0977 28.0628V28.089C71.0977 29.1552 70.4921 29.7871 69.676 30.1427C70.7952 30.511 71.5061 31.1428 71.5061 32.3936V32.4193C71.5061 33.9994 70.216 34.9602 68.0177 34.9602H63.2656V25.7461H63.2658ZM68.5835 28.5894C68.5835 28.076 68.176 27.7997 67.4257 27.7997H65.7536V29.4186H67.3599C68.1366 29.4186 68.5835 29.1552 68.5835 28.6156V28.5894ZM67.7018 31.2084H65.7539V32.9065H67.7282C68.5177 32.9065 68.9528 32.6038 68.9528 32.0642V32.038C68.9528 31.5378 68.5571 31.2084 67.7018 31.2084Z" fill="#B4B7C9"/>
<path d="M73.4768 25.7461H78.2023C79.3608 25.7461 80.1767 26.0356 80.7165 26.5624C81.0848 26.9438 81.3087 27.431 81.3087 28.0628V28.089C81.3087 29.1552 80.7031 29.7871 79.8869 30.1427C81.0062 30.511 81.7162 31.1428 81.7162 32.3936V32.4193C81.7162 33.9994 80.4268 34.9602 78.2287 34.9602H73.4766V25.7461H73.4768ZM78.7945 28.5894C78.7945 28.076 78.387 27.7997 77.6367 27.7997H75.9646V29.4186H77.5709C78.3467 29.4186 78.7945 29.1552 78.7945 28.6156V28.5894ZM77.9125 31.2084H75.9646V32.9065H77.939C78.7285 32.9065 79.1633 32.6038 79.1633 32.0642V32.038C79.1633 31.5378 78.7688 31.2084 77.9125 31.2084Z" fill="#B4B7C9"/>
<path d="M85.2331 31.5116L81.7188 25.7461H84.6282L86.5233 29.1024L88.4318 25.7461H91.2888L87.7863 31.4722V34.9602H85.2334V31.5116H85.2331Z" fill="#B4B7C9"/>
<path d="M41.763 38.8984H42.3438L46.13 47.087H45.4684L44.4346 44.8104H39.6373L38.6035 47.087H37.9766L41.763 38.8984ZM44.1791 44.2643L42.0422 39.5605L39.893 44.2643H44.1791Z" fill="#B4B7C9"/>
<path d="M46.0859 38.9534H46.7597L49.3148 46.1895L51.6963 38.9297H52.1604L54.5421 46.1895L57.0973 38.9534H57.7242L54.7743 47.142H54.2864L51.905 40.0799L49.5238 47.142H49.0359L46.0859 38.9534Z" fill="#B4B7C9"/>
<path d="M61.6614 38.9033H62.2422L66.0284 47.0915H65.3668L64.333 44.8153H59.5357L58.5019 47.0915H57.875L61.6614 38.9033ZM64.0776 44.2692L61.9406 39.5654L59.7914 44.2692H64.0776Z" fill="#B4B7C9"/>
<path d="M67.4219 38.9531H70.8368C71.8359 38.9531 72.6375 39.2666 73.1254 39.7542C73.5087 40.1378 73.7409 40.6834 73.7409 41.2643V41.2875C73.7409 42.6462 72.7304 43.4251 71.3594 43.6105L74.0425 47.0837H73.2756L70.6857 43.7156H68.026V47.0837H67.4219V38.9531ZM70.7672 43.1692C72.1261 43.1692 73.1363 42.4839 73.1363 41.3111V41.2875C73.1363 40.196 72.2774 39.5102 70.8019 39.5102H68.026V43.1692H70.7672Z" fill="#B4B7C9"/>
<path d="M75.5391 38.9531H78.2456C80.8008 38.9531 82.5665 40.7067 82.5665 42.9953V43.0181C82.5665 45.3066 80.8008 47.0837 78.2456 47.0837H75.5391V38.9531ZM76.1432 39.5102V46.526H78.2456C80.5104 46.526 81.9389 44.9811 81.9389 43.0416V43.0181C81.9389 41.0905 80.5104 39.5104 78.2456 39.5104H76.1432V39.5102Z" fill="#B4B7C9"/>
<path d="M83.6797 45.9018L84.0746 45.4488C84.9698 46.2737 85.7942 46.6565 86.9903 46.6565C88.2092 46.6565 89.0457 45.9714 89.0457 45.0424V45.0189C89.0457 44.1596 88.5935 43.6603 86.7469 43.2884C84.7958 42.8934 84.0048 42.2313 84.0048 40.9998V40.9766C84.0048 39.7686 85.1091 38.8398 86.6184 38.8398C87.804 38.8398 88.5816 39.1647 89.4058 39.8268L89.0231 40.3031C88.2563 39.641 87.4894 39.3851 86.5956 39.3851C85.3993 39.3851 84.6098 40.0706 84.6098 40.9183V40.9418C84.6098 41.8012 85.0515 42.3238 86.9782 42.7187C88.8595 43.1018 89.6507 43.7758 89.6507 44.9605V44.9838C89.6507 46.296 88.524 47.2022 86.9556 47.2022C85.655 47.2024 84.6552 46.773 83.6797 45.9018Z" fill="#B4B7C9"/>
</svg>
