<svg width="160" height="64" viewBox="0 0 160 64" fill="none" xmlns="http://www.w3.org/2000/svg">
<path d="M23.9409 44.8248H49.5909V19.1748H23.9409V44.8248ZM44.6539 29.5318H39.2339V24.1118H44.6539V29.5318ZM28.8769 24.1118H34.2999V34.4678H44.6539V39.8878H28.8769V24.1118ZM66.2939 19.1748C63.7573 19.1748 61.2777 19.927 59.1687 21.3362C57.0596 22.7454 55.4158 24.7484 54.4451 27.0919C53.4744 29.4354 53.2205 32.014 53.7153 34.5018C54.2102 36.9896 55.4316 39.2748 57.2252 41.0684C59.0188 42.8621 61.304 44.0835 63.7918 44.5784C66.2797 45.0732 68.8583 44.8193 71.2018 43.8486C73.5453 42.8779 75.5482 41.2341 76.9575 39.125C78.3667 37.0159 79.1189 34.5363 79.1189 31.9998C79.1149 28.5996 77.7624 25.3398 75.3581 22.9356C72.9538 20.5313 69.6941 19.1788 66.2939 19.1748ZM66.2939 39.8878C64.7338 39.8878 63.2087 39.4252 61.9115 38.5584C60.6144 37.6917 59.6033 36.4598 59.0063 35.0184C58.4093 33.5771 58.2531 31.9911 58.5574 30.4609C58.8618 28.9308 59.6131 27.5253 60.7162 26.4221C61.8194 25.319 63.2249 24.5677 64.755 24.2634C66.2851 23.959 67.8711 24.1152 69.3125 24.7122C70.7538 25.3093 71.9858 26.3203 72.8525 27.6175C73.7193 28.9146 74.1819 30.4397 74.1819 31.9998C74.1787 34.0909 73.3466 36.0954 71.868 37.574C70.3894 39.0526 68.3849 39.8846 66.2939 39.8878ZM125.013 19.1748C122.476 19.1746 119.997 19.9266 117.887 21.3357C115.778 22.7448 114.134 24.7478 113.163 27.0912C112.193 29.4346 111.938 32.0134 112.433 34.5012C112.928 36.9891 114.149 39.2744 115.943 41.0681C117.736 42.8618 120.022 44.0834 122.51 44.5783C124.997 45.0732 127.576 44.8193 129.92 43.8487C132.263 42.878 134.266 41.2342 135.675 39.1251C137.085 37.016 137.837 34.5364 137.837 31.9998C137.833 28.5998 136.481 25.3402 134.077 22.9359C131.673 20.5316 128.413 19.179 125.013 19.1748ZM125.013 39.8878C123.453 39.888 121.928 39.4255 120.63 38.5589C119.333 37.6923 118.322 36.4604 117.725 35.0191C117.127 33.5778 116.971 31.9917 117.275 30.4615C117.58 28.9314 118.331 27.5258 119.434 26.4225C120.537 25.3192 121.943 24.5679 123.473 24.2634C125.003 23.959 126.589 24.1152 128.03 24.7122C129.472 25.3091 130.704 26.3202 131.571 27.6174C132.437 28.9146 132.9 30.4397 132.9 31.9998C132.897 34.0907 132.065 36.095 130.586 37.5736C129.108 39.0522 127.104 39.8844 125.013 39.8878ZM95.6529 19.1748C93.1163 19.1748 90.6367 19.927 88.5277 21.3362C86.4186 22.7454 84.7748 24.7484 83.8041 27.0919C82.8334 29.4354 82.5795 32.014 83.0743 34.5018C83.5692 36.9896 84.7906 39.2748 86.5842 41.0684C88.3778 42.8621 90.663 44.0835 93.1508 44.5784C95.6386 45.0732 98.2173 44.8193 100.561 43.8486C102.904 42.8779 104.907 41.2341 106.317 39.125C107.726 37.0159 108.478 34.5363 108.478 31.9998C108.474 28.5996 107.121 25.3398 104.717 22.9356C102.313 20.5313 99.0531 19.1788 95.6529 19.1748ZM95.6529 39.8878C94.1993 39.8885 92.7739 39.4876 91.5338 38.7293C90.2938 37.971 89.2873 36.8849 88.6256 35.5907C87.964 34.2965 87.6727 32.8446 87.7841 31.3954C87.8955 29.9461 88.4051 28.5558 89.2568 27.3779C90.1085 26.2001 91.2691 25.2804 92.6104 24.7205C93.9518 24.1606 95.4218 23.9822 96.8581 24.205C98.2945 24.4279 99.6413 25.0432 100.75 25.9832C101.859 26.9232 102.686 28.1513 103.141 29.5318H95.6529V34.4678H103.141C102.62 36.0431 101.616 37.4145 100.272 38.3873C98.9283 39.3602 97.3121 39.8851 95.6529 39.8878Z" fill="#B4B7C9"/>
</svg>
