<svg width="48" height="48" viewBox="0 0 48 48" fill="none" xmlns="http://www.w3.org/2000/svg">
<g clip-path="url(#clip0_1_484)">
<path d="M45.2765 7.53009H39.3815V3.75H40.3468C41.3824 3.75 42.2218 2.91056 42.2218 1.875C42.2218 0.839437 41.3824 0 40.3468 0H7.65622C6.62066 0 5.78122 0.839437 5.78122 1.875C5.78122 2.91056 6.62066 3.75 7.65622 3.75H8.62156V7.53009H2.72656C1.691 7.53009 0.851562 8.36953 0.851562 9.40509V12.737C0.851562 14.9637 1.47819 17.137 2.66366 19.022C3.84912 20.9068 5.53662 22.413 7.54372 23.3776L8.77428 23.9689C9.55409 29.4661 13.2512 34.0373 18.2436 36.0601L15.9402 44.25H9.10325C8.06769 44.25 7.22825 45.0894 7.22825 46.125C7.22825 47.1606 8.06769 48 9.10325 48H38.8998C39.9354 48 40.7748 47.1606 40.7748 46.125C40.7748 45.0894 39.9354 44.25 38.8998 44.25H32.0639L29.2841 34.3344C29.006 33.3426 27.9797 32.7605 26.986 33.0315C25.9917 33.3022 25.0433 33.4283 24.0014 33.4283C17.5887 33.4283 12.3715 28.2113 12.3715 21.7984V3.75H35.6313V21.7985C35.6313 24.1285 34.9452 26.376 33.6473 28.298C33.0677 29.1561 33.2936 30.3217 34.1517 30.9012C35.0098 31.481 36.1754 31.2548 36.755 30.3967C38.0655 28.4561 38.9049 26.2659 39.2293 23.9687L40.4593 23.3777C40.4592 23.3777 40.4593 23.3776 40.4593 23.3777C42.4663 22.4132 44.1539 20.9069 45.3394 19.0221C46.5249 17.1371 47.1515 14.9638 47.1515 12.7371V9.40519C47.1515 8.36953 46.3121 7.53009 45.2765 7.53009ZM21.8661 37.0306C22.5643 37.1281 23.2768 37.1783 24.0015 37.1783C24.7418 37.1783 25.4469 37.1302 26.1454 37.0304L28.1695 44.25H19.8357L21.8661 37.0306ZM4.60156 12.737V11.2801H8.62156V19.7082C6.16081 18.28 4.60156 15.6075 4.60156 12.737ZM43.4015 12.737C43.4015 15.6075 41.8422 18.28 39.3815 19.7082V11.2801H43.4015V12.737Z" fill="url(#paint0_linear_1_484)"/>
<path d="M27.635 13.7348C27.635 12.6993 26.7955 11.8599 25.76 11.8599H22.2414C21.2058 11.8599 20.3664 12.6993 20.3664 13.7348C20.3664 14.7316 21.144 15.5466 22.1257 15.6063V19.9857C21.144 20.0454 20.3664 20.8605 20.3664 21.8572C20.3664 22.8927 21.2058 23.7322 22.2414 23.7322H25.76C26.7955 23.7322 27.635 22.8927 27.635 21.8572C27.635 20.8604 26.8573 20.0454 25.8757 19.9857V15.6063C26.8573 15.5466 27.635 14.7315 27.635 13.7348Z" fill="url(#paint1_linear_1_484)"/>
</g>
<defs>
<linearGradient id="paint0_linear_1_484" x1="0.851562" y1="24.1148" x2="47.1515" y2="24.1148" gradientUnits="userSpaceOnUse">
<stop stop-color="#6366F1"/>
<stop offset="0.5" stop-color="#8B5CF6"/>
<stop offset="1" stop-color="#D946EF"/>
</linearGradient>
<linearGradient id="paint1_linear_1_484" x1="0.851562" y1="24.1148" x2="47.1515" y2="24.1148" gradientUnits="userSpaceOnUse">
<stop stop-color="#6366F1"/>
<stop offset="0.5" stop-color="#8B5CF6"/>
<stop offset="1" stop-color="#D946EF"/>
</linearGradient>
<clipPath id="clip0_1_484">
<rect width="48" height="48" fill="white"/>
</clipPath>
</defs>
</svg>
