<svg width="48" height="48" viewBox="0 0 48 48" fill="none" xmlns="http://www.w3.org/2000/svg">
<g clip-path="url(#clip0_1_477)">
<path d="M1.875 18.7499C2.91053 18.7499 3.75 17.9105 3.75 16.8749C3.75 15.8394 2.91053 14.9999 1.875 14.9999C0.839466 14.9999 0 15.8394 0 16.8749C0 17.9105 0.839466 18.7499 1.875 18.7499Z" fill="url(#paint0_linear_1_477)"/>
<path d="M46.125 18.7499C47.1606 18.7499 48 17.9105 48 16.8749C48 15.8394 47.1606 14.9999 46.125 14.9999C45.0895 14.9999 44.25 15.8394 44.25 16.8749C44.25 17.9105 45.0895 18.7499 46.125 18.7499Z" fill="url(#paint1_linear_1_477)"/>
<path d="M2.43997 26.2676C3.37851 26.7053 4.49404 26.2992 4.93176 25.3607C5.36938 24.4222 4.96335 23.3066 4.02482 22.869C3.08629 22.4314 1.97076 22.8374 1.53304 23.776C1.09551 24.7144 1.50154 25.83 2.43997 26.2676Z" fill="url(#paint2_linear_1_477)"/>
<path d="M43.0688 8.38654C42.6312 9.32508 43.0373 10.4406 43.9758 10.8782C44.9143 11.3159 46.0299 10.9098 46.4676 9.97129C46.9052 9.03276 46.4992 7.91723 45.5606 7.47961C44.6221 7.04198 43.5065 7.44801 43.0688 8.38654Z" fill="url(#paint3_linear_1_477)"/>
<path d="M45.5606 26.2713C46.4992 25.8337 46.9052 24.7181 46.4676 23.7796C46.0299 22.841 44.9143 22.435 43.9758 22.8726C43.0373 23.3102 42.6312 24.4259 43.0688 25.3643C43.5065 26.3029 44.6221 26.709 45.5606 26.2713Z" fill="url(#paint4_linear_1_477)"/>
<path d="M4.93146 8.38654C4.49383 7.44801 3.37821 7.04198 2.43968 7.47961C1.50115 7.91723 1.09512 9.03286 1.53274 9.97129C1.97037 10.9098 3.08599 11.3159 4.02452 10.8782C4.96305 10.4406 5.36908 9.32508 4.93146 8.38654Z" fill="url(#paint5_linear_1_477)"/>
<path d="M25.875 42.375C25.875 43.4089 25.0338 44.25 24 44.25C22.9661 44.25 22.125 43.4089 22.125 42.375C22.125 41.3394 21.2855 40.5 20.25 40.5C19.2144 40.5 18.375 41.3394 18.375 42.375C18.375 45.4766 20.8983 48 24 48C27.1016 48 29.625 45.4766 29.625 42.375C29.625 41.3394 28.7855 40.5 27.75 40.5C26.7144 40.5 25.875 41.3394 25.875 42.375Z" fill="url(#paint6_linear_1_477)"/>
<path d="M23.9999 0C14.6951 0 7.12494 7.57013 7.12494 16.875C7.12494 21.6941 9.16728 26.066 12.526 29.1738C14.0422 30.5766 14.3921 31.7834 14.5344 32.779C14.919 35.4704 17.3009 37.5 20.0749 37.5H27.9168C30.7137 37.5 33.0968 35.4709 33.4603 32.7801C33.5933 31.7949 33.9365 30.5961 35.4739 29.1737C37.9657 26.868 39.6838 23.9253 40.4423 20.6635C40.7293 19.4291 40.8749 18.1545 40.8749 16.875C40.8749 7.57013 33.3048 0 23.9999 0ZM36.7898 19.8142C36.2019 22.3424 34.8661 24.6271 32.9273 26.4212C31.062 28.1467 30.0506 30.0079 29.744 32.2782C29.6326 33.1035 28.8299 33.75 27.9169 33.75H20.075C19.1551 33.75 18.3691 33.1045 18.2468 32.2485C17.9219 29.9757 16.9134 28.1241 15.073 26.4212C12.3658 23.9165 10.8749 20.5263 10.8749 16.875C10.8749 9.63787 16.7628 3.75 23.9999 3.75C31.2371 3.75 37.1249 9.63787 37.1249 16.875C37.1249 17.869 37.0122 18.8578 36.7898 19.8142Z" fill="url(#paint7_linear_1_477)"/>
<path d="M26.4242 15.5489L24.0001 17.9731L21.576 15.5489C20.8437 14.8166 19.6565 14.8166 18.9243 15.5489C18.1921 16.2812 18.192 17.4684 18.9243 18.2005L22.1251 21.4014V24.3747C22.1251 25.4103 22.9645 26.2497 24.0001 26.2497C25.0356 26.2497 25.8751 25.4103 25.8751 24.3747V21.4014L29.076 18.2005C29.8083 17.4683 29.8083 16.2811 29.076 15.5489C28.3437 14.8167 27.1565 14.8166 26.4242 15.5489Z" fill="url(#paint8_linear_1_477)"/>
</g>
<defs>
<linearGradient id="paint0_linear_1_477" x1="0" y1="24.1148" x2="48" y2="24.1148" gradientUnits="userSpaceOnUse">
<stop stop-color="#6366F1"/>
<stop offset="0.5" stop-color="#8B5CF6"/>
<stop offset="1" stop-color="#D946EF"/>
</linearGradient>
<linearGradient id="paint1_linear_1_477" x1="0" y1="24.1148" x2="48" y2="24.1148" gradientUnits="userSpaceOnUse">
<stop stop-color="#6366F1"/>
<stop offset="0.5" stop-color="#8B5CF6"/>
<stop offset="1" stop-color="#D946EF"/>
</linearGradient>
<linearGradient id="paint2_linear_1_477" x1="0" y1="24.1148" x2="48" y2="24.1148" gradientUnits="userSpaceOnUse">
<stop stop-color="#6366F1"/>
<stop offset="0.5" stop-color="#8B5CF6"/>
<stop offset="1" stop-color="#D946EF"/>
</linearGradient>
<linearGradient id="paint3_linear_1_477" x1="0" y1="24.1148" x2="48" y2="24.1148" gradientUnits="userSpaceOnUse">
<stop stop-color="#6366F1"/>
<stop offset="0.5" stop-color="#8B5CF6"/>
<stop offset="1" stop-color="#D946EF"/>
</linearGradient>
<linearGradient id="paint4_linear_1_477" x1="0" y1="24.1148" x2="48" y2="24.1148" gradientUnits="userSpaceOnUse">
<stop stop-color="#6366F1"/>
<stop offset="0.5" stop-color="#8B5CF6"/>
<stop offset="1" stop-color="#D946EF"/>
</linearGradient>
<linearGradient id="paint5_linear_1_477" x1="0" y1="24.1148" x2="48" y2="24.1148" gradientUnits="userSpaceOnUse">
<stop stop-color="#6366F1"/>
<stop offset="0.5" stop-color="#8B5CF6"/>
<stop offset="1" stop-color="#D946EF"/>
</linearGradient>
<linearGradient id="paint6_linear_1_477" x1="0" y1="24.1148" x2="48" y2="24.1148" gradientUnits="userSpaceOnUse">
<stop stop-color="#6366F1"/>
<stop offset="0.5" stop-color="#8B5CF6"/>
<stop offset="1" stop-color="#D946EF"/>
</linearGradient>
<linearGradient id="paint7_linear_1_477" x1="0" y1="24.1148" x2="48" y2="24.1148" gradientUnits="userSpaceOnUse">
<stop stop-color="#6366F1"/>
<stop offset="0.5" stop-color="#8B5CF6"/>
<stop offset="1" stop-color="#D946EF"/>
</linearGradient>
<linearGradient id="paint8_linear_1_477" x1="0" y1="24.1148" x2="48" y2="24.1148" gradientUnits="userSpaceOnUse">
<stop stop-color="#6366F1"/>
<stop offset="0.5" stop-color="#8B5CF6"/>
<stop offset="1" stop-color="#D946EF"/>
</linearGradient>
<clipPath id="clip0_1_477">
<rect width="48" height="48" fill="white"/>
</clipPath>
</defs>
</svg>
