<svg width="48" height="48" viewBox="0 0 48 48" fill="none" xmlns="http://www.w3.org/2000/svg">
<g clip-path="url(#clip0_1_491)">
<path d="M7.5 11.2499C3.3645 11.2499 0 14.6144 0 18.7499V20.6249C0 21.6605 0.839437 22.4999 1.875 22.4999H13.125C14.1606 22.4999 15 21.6605 15 20.6249V18.7499C15 14.6144 11.6355 11.2499 7.5 11.2499ZM3.75 18.7499C3.75 16.6821 5.43225 14.9999 7.5 14.9999C9.56775 14.9999 11.25 16.6821 11.25 18.7499H3.75Z" fill="url(#paint0_linear_1_491)"/>
<path d="M13.125 5.625C13.125 2.52338 10.6017 0 7.50003 0C4.3984 0 1.87503 2.52338 1.87503 5.625C1.87503 8.72663 4.39837 11.2499 7.5 11.2499C10.6016 11.2499 13.125 8.72663 13.125 5.625ZM7.50003 7.5C6.46615 7.5 5.62503 6.65887 5.62503 5.625C5.62503 4.59113 6.46615 3.75 7.50003 3.75C8.5339 3.75 9.37503 4.59113 9.37503 5.625C9.37503 6.65887 8.5339 7.5 7.50003 7.5Z" fill="url(#paint1_linear_1_491)"/>
<path d="M40.5 11.2499C36.3645 11.2499 33 14.6144 33 18.7499V20.6249C33 21.6605 33.8395 22.4999 34.875 22.4999H46.125C47.1606 22.4999 48 21.6605 48 20.6249V18.7499C48 14.6144 44.6355 11.2499 40.5 11.2499ZM36.75 18.7499C36.75 16.6821 38.4323 14.9999 40.5 14.9999C42.5678 14.9999 44.25 16.6821 44.25 18.7499H36.75Z" fill="url(#paint2_linear_1_491)"/>
<path d="M46.125 5.625C46.125 2.52338 43.6017 0 40.5 0C37.3984 0 34.875 2.52338 34.875 5.625C34.875 8.72663 37.3984 11.2499 40.5 11.2499C43.6016 11.2499 46.125 8.72663 46.125 5.625ZM40.5 7.5C39.4662 7.5 38.625 6.65887 38.625 5.625C38.625 4.59113 39.4662 3.75 40.5 3.75C41.5339 3.75 42.375 4.59113 42.375 5.625C42.375 6.65887 41.5339 7.5 40.5 7.5Z" fill="url(#paint3_linear_1_491)"/>
<path d="M23.9999 36.7499C19.8644 36.7499 16.4999 40.1144 16.4999 44.2499V46.1249C16.4999 47.1605 17.3394 47.9999 18.3749 47.9999H29.6249C30.6605 47.9999 31.4999 47.1605 31.4999 46.1249V44.2499C31.4999 40.1144 28.1354 36.7499 23.9999 36.7499ZM20.2499 44.2499C20.2499 42.1822 21.9322 40.4999 23.9999 40.4999C26.0677 40.4999 27.7499 42.1822 27.7499 44.2499H20.2499Z" fill="url(#paint4_linear_1_491)"/>
<path d="M29.625 31.125C29.625 28.0234 27.1016 25.5 24 25.5C20.8983 25.5 18.375 28.0234 18.375 31.125C18.375 34.2267 20.8983 36.7499 23.9999 36.7499C27.1016 36.7499 29.625 34.2267 29.625 31.125ZM24 33C22.9661 33 22.125 32.1589 22.125 31.125C22.125 30.0912 22.9661 29.25 24 29.25C25.0338 29.25 25.875 30.0912 25.875 31.125C25.875 32.1589 25.0338 33 24 33Z" fill="url(#paint5_linear_1_491)"/>
<path d="M10.0066 33.4345C9.39722 32.5325 8.87381 31.5684 8.451 30.5688C8.02069 29.5514 7.69013 28.4865 7.46859 27.4038C7.26103 26.3893 6.27094 25.7353 5.25572 25.9427C4.24125 26.1503 3.58707 27.141 3.79472 28.1555C4.06594 29.4808 4.47047 30.7842 4.99725 32.0296C5.51438 33.2521 6.15431 34.4311 6.89916 35.5336C7.63659 36.6253 8.48363 37.6519 9.41672 38.5849C10.1489 39.3171 11.3361 39.3171 12.0683 38.5848C12.8006 37.8525 12.8005 36.6654 12.0682 35.9332C11.3041 35.1692 10.6105 34.3285 10.0066 33.4345Z" fill="url(#paint6_linear_1_491)"/>
<path d="M42.7453 25.9429C41.7296 25.735 40.74 26.3895 40.5324 27.4039C40.3109 28.4868 39.9802 29.5516 39.55 30.5689C39.1272 31.5685 38.6038 32.5326 37.9943 33.4348C37.3905 34.3286 36.6969 35.1693 35.9327 35.9334C35.2004 36.6657 35.2003 37.8528 35.9326 38.585C36.6646 39.3171 37.852 39.3175 38.5843 38.5851C39.5173 37.6521 40.3643 36.6256 41.1017 35.5339C41.8467 34.4313 42.4866 33.2523 43.0037 32.0299C43.5305 30.7845 43.9352 29.481 44.2063 28.1557C44.4139 27.1412 43.7598 26.1504 42.7453 25.9429Z" fill="url(#paint7_linear_1_491)"/>
<path d="M32.0288 4.99662C29.4848 3.92065 26.7835 3.37502 24 3.37502C21.2166 3.37502 18.5153 3.92065 15.9713 4.99662C15.0176 5.40002 14.5714 6.50018 14.9748 7.4539C15.3781 8.40762 16.4785 8.85387 17.4321 8.45037C19.5114 7.5709 21.7211 7.12502 24 7.12502C26.279 7.12502 28.4887 7.5709 30.568 8.45037C31.5216 8.85368 32.6219 8.40753 33.0252 7.4539C33.4286 6.50018 32.9824 5.40002 32.0288 4.99662Z" fill="url(#paint8_linear_1_491)"/>
</g>
<defs>
<linearGradient id="paint0_linear_1_491" x1="0" y1="24.1148" x2="48" y2="24.1148" gradientUnits="userSpaceOnUse">
<stop stop-color="#6366F1"/>
<stop offset="0.5" stop-color="#8B5CF6"/>
<stop offset="1" stop-color="#D946EF"/>
</linearGradient>
<linearGradient id="paint1_linear_1_491" x1="0" y1="24.1148" x2="48" y2="24.1148" gradientUnits="userSpaceOnUse">
<stop stop-color="#6366F1"/>
<stop offset="0.5" stop-color="#8B5CF6"/>
<stop offset="1" stop-color="#D946EF"/>
</linearGradient>
<linearGradient id="paint2_linear_1_491" x1="0" y1="24.1148" x2="48" y2="24.1148" gradientUnits="userSpaceOnUse">
<stop stop-color="#6366F1"/>
<stop offset="0.5" stop-color="#8B5CF6"/>
<stop offset="1" stop-color="#D946EF"/>
</linearGradient>
<linearGradient id="paint3_linear_1_491" x1="0" y1="24.1148" x2="48" y2="24.1148" gradientUnits="userSpaceOnUse">
<stop stop-color="#6366F1"/>
<stop offset="0.5" stop-color="#8B5CF6"/>
<stop offset="1" stop-color="#D946EF"/>
</linearGradient>
<linearGradient id="paint4_linear_1_491" x1="0" y1="24.1148" x2="48" y2="24.1148" gradientUnits="userSpaceOnUse">
<stop stop-color="#6366F1"/>
<stop offset="0.5" stop-color="#8B5CF6"/>
<stop offset="1" stop-color="#D946EF"/>
</linearGradient>
<linearGradient id="paint5_linear_1_491" x1="0" y1="24.1148" x2="48" y2="24.1148" gradientUnits="userSpaceOnUse">
<stop stop-color="#6366F1"/>
<stop offset="0.5" stop-color="#8B5CF6"/>
<stop offset="1" stop-color="#D946EF"/>
</linearGradient>
<linearGradient id="paint6_linear_1_491" x1="0" y1="24.1148" x2="48" y2="24.1148" gradientUnits="userSpaceOnUse">
<stop stop-color="#6366F1"/>
<stop offset="0.5" stop-color="#8B5CF6"/>
<stop offset="1" stop-color="#D946EF"/>
</linearGradient>
<linearGradient id="paint7_linear_1_491" x1="0" y1="24.1148" x2="48" y2="24.1148" gradientUnits="userSpaceOnUse">
<stop stop-color="#6366F1"/>
<stop offset="0.5" stop-color="#8B5CF6"/>
<stop offset="1" stop-color="#D946EF"/>
</linearGradient>
<linearGradient id="paint8_linear_1_491" x1="0" y1="24.1148" x2="48" y2="24.1148" gradientUnits="userSpaceOnUse">
<stop stop-color="#6366F1"/>
<stop offset="0.5" stop-color="#8B5CF6"/>
<stop offset="1" stop-color="#D946EF"/>
</linearGradient>
<clipPath id="clip0_1_491">
<rect width="48" height="48" fill="white"/>
</clipPath>
</defs>
</svg>
